<?xml version="1.0" encoding="UTF-8"?>
<svg width="1200pt" height="1200pt" version="1.1" viewBox="0 0 1200 1200" xmlns="http://www.w3.org/2000/svg">
 <g>
  <path d="m1200 600c0 214.36-114.36 412.44-300 519.62-185.64 107.18-414.36 107.18-600 0-185.64-107.18-300-305.26-300-519.62s114.36-412.44 300-519.62c185.64-107.18 414.36-107.18 600 0 185.64 107.18 300 305.26 300 519.62" fill="#ff001b"/>
  <path d="m666.79 600 249.82-249.89c18.449-18.449 18.449-48.34 0-66.789s-48.34-18.449-66.789 0l-249.82 249.89-249.89-249.81c-18.449-18.449-48.34-18.449-66.789 0-18.449 18.449-18.449 48.34 0 66.789l249.89 249.81-249.81 249.89c-18.449 18.449-18.449 48.34 0 66.789 9.2266 9.2266 21.328 13.801 33.359 13.801s24.133-4.5742 33.359-13.801l249.88-249.89 249.89 249.82c18.449 18.449 48.34 18.449 66.789 0 9.2266-9.2266 13.801-21.328 13.801-33.359s-4.5742-24.133-13.801-33.359z" fill="#fff"/>
 </g>
</svg>
