<?xml version="1.0" encoding="UTF-8"?>
<svg width="1200pt" height="1200pt" version="1.1" viewBox="0 0 1200 1200" xmlns="http://www.w3.org/2000/svg">
 <g fill="#00449e">
  <path d="m599.98 0c-328.11-0.22656-594.17 268.51-594.49 599.73 0.32422 331.72 266.38 600.39 594.49 600.27 328.23 0.13281 594.28-268.55 594.53-600.25-0.25-331.23-266.29-599.97-594.53-599.75zm0 1061.8c-252.46 0-457.15-206.77-456.95-462.14-0.25391-254.75 204.49-461.48 456.95-461.41 252.57-0.070313 457.31 206.66 457.59 461.5-0.27734 255.27-205.01 462.06-457.59 462.06z"/>
  <path d="m549.93 772.19 108.88-0.49219v-84.18c-0.27734-22.812 10.355-44.449 38.902-63.133 28.559-18.758 108.19-56.699 108.3-156.73-0.12109-99.613-83.762-168.19-154.11-183.01-70.246-14.293-146.44-4.7539-200.39 54.73-48.504 52.754-58.703 94.703-58.859 187.23h108.84v-21.59c-0.16797-49.234 5.4961-101.26 75.742-115.68 38.664-7.5703 74.711 4.5 96.215 25.234 24.289 24.086 24.504 77.953-14.664 104.66l-61.078 41.578c-35.508 23.027-47.723 48.457-47.797 85.703l0.003907 125.67z"/>
  <path d="m549.39 926.33v-111.49h109.91v111.49z"/>
 </g>
</svg>
