<?xml version="1.0" encoding="UTF-8"?>
<svg width="1200pt" height="1200pt" version="1.1" viewBox="0 0 1200 1200" xmlns="http://www.w3.org/2000/svg">
 <path d="m18.172 1168.9c-4.8203 0-9.4414-1.918-12.852-5.3242-3.4062-3.4062-5.3203-8.0273-5.3203-12.848v-61c0-4.8203 1.9141-9.4414 5.3203-12.852 3.4102-3.4062 8.0312-5.3203 12.852-5.3203h1163.6-0.003906c4.8203 0 9.4414 1.9141 12.852 5.3203 3.4062 3.4102 5.3203 8.0312 5.3203 12.852v61c0 4.8203-1.9141 9.4414-5.3203 12.848-3.4102 3.4062-8.0312 5.3242-12.852 5.3242zm362.11-145.36-0.003906-0.003907c-8.7656-0.035156-17.164-3.5312-23.363-9.7305-6.1953-6.1992-9.6953-14.598-9.7305-23.363v-904.63c0.035156-8.7656 3.5352-17.164 9.7305-23.363 6.1992-6.1992 14.598-9.6992 23.363-9.7344h205.72c8.7656 0.035157 17.164 3.5352 23.363 9.7344 6.1992 6.1992 9.6953 14.598 9.7305 23.363v904.63c-0.14453 8.7305-3.6758 17.066-9.8516 23.242-6.1758 6.1758-14.512 9.707-23.242 9.8516zm-347.19 0v-0.003907c-8.7695-0.035156-17.164-3.5312-23.363-9.7305-6.1992-6.1992-9.6992-14.598-9.7344-23.363v-904.63c0.039062-8.7656 3.5352-17.164 9.7344-23.359 6.1992-6.1992 14.598-9.6992 23.363-9.7383h205.71c8.7656 0.039063 17.164 3.5391 23.359 9.7383 6.1992 6.1953 9.6992 14.594 9.7383 23.359v904.63c-0.039062 8.7656-3.5352 17.164-9.7344 23.363-6.1992 6.1992-14.598 9.6953-23.363 9.7305zm905.28-24.012-255.68-867.64-0.003906-0.003906c-2.543-8.3477-1.6406-17.363 2.5039-25.043 4.1445-7.6797 11.188-13.383 19.562-15.84l197.28-58.406h-0.003906c8.3477-2.543 17.367-1.6406 25.047 2.5039 7.6797 4.1445 13.383 11.188 15.836 19.562l255.68 868.29h0.003907c2.543 8.3477 1.6406 17.367-2.5039 25.047-4.1445 7.6797-11.188 13.383-19.562 15.836l-197.28 57.758h0.003907c-3.0977 0.92188-6.3086 1.3906-9.5391 1.3945-7.0625 0.011719-13.934-2.2695-19.586-6.5-5.6562-4.2305-9.7812-10.18-11.758-16.957z" fill="#fff"/>
</svg>
